<?xml version="1.0" encoding="UTF-8" standalone="no" ?>
<!DOCTYPE svg PUBLIC "-//W3C//DTD SVG 1.1//EN" "http://www.w3.org/Graphics/SVG/1.1/DTD/svg11.dtd">
<svg xmlns="http://www.w3.org/2000/svg" xmlns:xlink="http://www.w3.org/1999/xlink" version="1.1" width="500" height="500" viewBox="0 0 500 500" xml:space="preserve">
<desc>Created with Fabric.js 3.6.3</desc>
<defs>
</defs>
<g transform="matrix(1 0 0 1 -484.1718181818181 277.9812656226088)" style=""  ><path fill="#000000" opacity="1" d="M35.65-207.38L87.52-138.39L77.33-33.74L27.32-6.88L-8.33-43.92L-7.87 55.17L-25.47 28.31L-27.32 24.61L-24.54 145.46L-39.36 122.31L-49.55 233.44L-82.89 42.20L-66.22 53.32L-83.81-61.52L-60.66-51.33L-80.11-213.86L-8.80-213.86L-8.80-188.86L35.65-207.38ZM23.62-35.59L32.88-47.63L27.32-183.30L-8.80-168.49L-8.33-52.26L23.62-35.59Z"/></g><g transform="matrix(1 0 0 1 250.25 259.37675)" style=""  ><path fill="#ffffff" opacity="1" d="M-151.49 30.35L-151.27 32.14Q-157.51 37.49-175.57 51.98L-175.57 51.98Q-199.43 71.15-207.23 71.15L-207.23 71.15Q-208.35 71.15-208.79 70.48L-208.79 70.48L-236.66 37.04Q-242.46 24.56-242.46 20.54L-242.46 20.54Q-242.46 15.64-237.11 12.29L-237.11 12.29L-229.30 7.39L-212.36 3.38Q-215.48 6.27-218.60 8.95L-218.60 8.95Q-221.95 12.52-222.39 16.31L-222.39 16.31Q-220.83 21.88-210.35 35.70L-210.35 35.70Q-199.21 50.42-195.42 49.30L-195.42 49.30Q-191.63 42.61-180.92 30.80L-180.92 30.80L-182.71 31.24Q-181.15 30.13-181.15 27.90L-181.15 27.90Q-181.15 22.77-213.47-14.35Q-245.80-51.47-245.80-54.37L-245.80-54.37Q-245.80-56.15-244.46-57.04L-244.46-57.04L-241.12-61.06L-216.60-80.68Q-192.52-99.85-185.16-99.85L-185.16-99.85Q-184.05-99.85-183.38-99.18L-183.38-99.18L-155.51-65.74Q-149.71-53.25-149.71-49.24L-149.71-49.24Q-149.71-44.34-155.28-40.99L-155.28-40.99L-177.36-35.42L-177.58-36.98Q-175.13-39.43-171.78-41.44L-171.78-41.44Q-170.67-41.88-170.22-45.23L-170.22-45.23Q-172.01-51.02-185.83-62.95Q-199.65-74.88-204.78-73.77L-204.78-73.77Q-207.68-73.10-211.02-67.86Q-214.37-62.62-214.37-59.50L-214.37-59.50Q-214.37-56.82-212.36-54.15L-212.36-54.15Q-198.54-36.31-168.66-4.43L-168.66-4.43Q-147.04 18.54-147.04 25.67L-147.04 25.67Q-147.04 28.12-149.04 29.91L-149.04 29.91L-151.49 30.35Z"/><path fill="#ffffff" opacity="1" d="M-93.53-35.19L-87.28-13.79L-92.86-2.20Q-101.55-7.33-112.70-7.33L-112.70-7.33Q-119.39-7.33-120.95-5.54L-120.95-5.54L-119.39 31.02Q-117.61 34.81-111.81 37.93L-111.81 37.93Q-107.35 32.14-105.79 23.44L-105.79 23.44Q-105.57 22.55-104.68 12.07L-104.68 12.07L-94.87 24.56L-108.47 43.95L-119.84 44.18L-142.35 24.56Q-144.14 16.08-144.14 5.16L-144.14 5.16Q-144.14-10.45-141.02-27.61L-141.02-27.61L-116.05-47.23Q-113.37-48.13-111.59-47.01L-111.59-47.01L-93.53-35.19ZM-103.34-12.45L-103.34-12.45L-114.71-38.09Q-116.27-40.10-116.71-40.10L-116.71-40.10Q-117.61-40.10-118.50-38.54L-118.50-38.54L-121.17-13.12Q-108.69-13.79-103.34-12.45Z"/><path fill="#ffffff" opacity="1" d="M-43.36-53.92L-41.36-44.34L-53.84-44.34L-55.85 50.42Q-56.29 51.31-56.29 52.20L-56.29 52.20Q-56.29 56.21-45.59 65.36L-45.59 65.36L-63.88 58.67Q-74.58 54.65-75.25 49.08L-75.25 49.08L-74.13-45.23L-92.86-45.23Q-73.68-55.93-54.51-82.24L-54.51-82.24L-54.96-53.92L-43.36-53.92Z"/><path fill="#ffffff" opacity="1" d="M1.67-53.92L3.68-44.34L-8.81-44.34L-10.81 50.42Q-11.26 51.31-11.26 52.20L-11.26 52.20Q-11.26 56.21-0.56 65.36L-0.56 65.36L-18.84 58.67Q-29.54 54.65-30.21 49.08L-30.21 49.08L-29.09-45.23L-47.82-45.23Q-28.65-55.93-9.48-82.24L-9.48-82.24L-9.92-53.92L1.67-53.92Z"/><path fill="#ffffff" opacity="1" d="M7.47 53.76L7.47 53.76L38.24 53.76Q31.32 49.97 32.44 41.72L32.44 41.72Q34.22 28.35 34.89 5.38L34.89 5.38Q35.56-18.03 34.67-34.97L34.67-34.97L14.60-34.97Q16.16-13.35 16.16 4.49L16.16 4.49Q16.16 28.12 13.71 43.95L13.71 43.95Q12.60 50.86 7.47 53.76ZM21.96-73.99L21.96-73.99Q24.86-71.98 28.87-71.98L28.87-71.98Q29.76-71.98 31.77-72.43Q33.78-72.87 34.67-72.87L34.67-72.87Q37.12-72.87 37.12-52.58L37.12-52.58Q30.66-46.34 21.96-45.45L21.96-45.45Q16.61-51.25 13.27-61.50L13.27-61.50Q13.71-65.07 13.93-68.41L13.93-68.41Q15.50-73.54 21.96-73.99Z"/><path fill="#ffffff" opacity="1" d="M56.07-26.95L44.48-26.50Q55.85-34.30 70.34-45.90L70.34-45.90L70.34-25.83Q74.58-30.96 81.04-37.65L81.04-37.65Q90.41-44.78 92.19-44.78L92.19-44.78Q93.30-44.78 93.75-44.11L93.75-44.11L106.46-25.83Q106.68-25.61 106.68 47.07L106.68 47.07Q106.68 49.30 104.45 49.97L104.45 49.97L83.94 62.01L83.94 61.12Q88.62 56.66 89.29 52.87L89.29 52.87Q89.07 15.41 87.28-25.16L87.28-25.16Q85.06-29.62 78.81-27.84L78.81-27.84Q78.14-27.61 71.01-18.25L71.01-18.25Q70.34 7.17 72.12 36.15L72.12 36.15Q72.57 43.28 79.04 44.84L79.04 44.84Q75.91 44.84 69.56 44.62Q63.21 44.40 60.09 44.40L60.09 44.40Q58.08 44.40 53.95 44.62Q49.83 44.84 47.82 44.84L47.82 44.84Q53.62 42.39 54.73 40.83L54.73 40.83Q55.63 39.94 55.63 36.37L55.63 36.37L56.07-26.95Z"/><path fill="#ffffff" opacity="1" d="M142.35 21.88L157.51 7.61Q157.07-15.58 155.95-39.43L155.95-39.43L138.34-49.24L135.67 16.08L142.35 21.88ZM176.69-48.35L176.69-48.35L176.46 10.29L175.13 63.57Q154.62 81.63 137.89 94.78L137.89 94.78Q131.65 99.69 128.98 99.69L128.98 99.69Q128.08 99.69 127.42 99.02L127.42 99.02L116.94 80.74Q114.04 74.27 114.04 71.82L114.04 71.82Q114.04 69.15 117.38 67.14L117.38 67.14L137.89 55.10L137.89 55.99Q133.21 60.45 132.54 64.24L132.54 64.24Q133.88 69.81 136.33 80.29L136.33 80.29Q137.45 85.42 138.34 85.20L138.34 85.20Q139.90 84.98 151.72 74.72L151.72 74.72Q157.07 70.04 157.96 65.13L157.96 65.13L157.96 58.67Q157.96 59.34 157.51 15.41L157.51 15.41L140.57 35.70L118.72 22.77L113.82-27.61L136.56-60.83L155.51-50.80Q155.28-57.27 155.06-61.28L155.06-61.28Q159.07-58.16 168.88-53.70L168.88-53.70Q176.69-50.13 176.69-48.35Z"/><path fill="#ffffff" opacity="1" d="M244.02 33.03L244.02 34.14Q242.24 35.48 229.75 45.07L229.75 45.07Q215.70 55.77 211.25 55.77L211.25 55.77Q210.58 55.77 210.35 55.32L210.35 55.32L195.42 37.04Q192.52 30.58 192.52 28.12L192.52 28.12Q192.52 25.45 195.86 23.44L195.86 23.44L200.32 20.77L210.13 18.54Q208.35 20.32 208.35 23.00L208.35 23.00Q208.35 23.89 208.90 26.90Q209.46 29.91 209.24 31.02L209.24 31.02Q209.91 33.70 215.26 37.82Q220.61 41.95 223.06 41.28L223.06 41.28Q223.06 38.82 227.30 33.47L227.30 33.47L226.18 33.70Q227.07 33.03 227.07 31.69L227.07 31.69Q227.07 28.79 209.80 8.84Q192.52-11.12 192.52-12.90L192.52-12.90Q192.52-14.01 193.41-14.46L193.41-14.46L195.42-16.69Q197.20-18.03 209.68-27.61L209.68-27.61Q223.73-38.32 228.19-38.32L228.19-38.32Q228.86-38.32 229.08-37.87L229.08-37.87L244.02-19.59Q246.92-13.12 246.92-10.67L246.92-10.67Q246.92-7.99 243.57-5.99L243.57-5.99L227.52-2.42L227.52-3.31Q229.30-5.10 229.30-7.99L229.30-7.99Q229.30-9.11 228.75-12.23Q228.19-15.35 228.41-16.69L228.41-16.69Q227.74-19.37 224.29-21.71Q220.83-24.05 217.93-24.05L217.93-24.05Q215.48-24.05 213.03-21.15Q210.58-18.25 210.58-15.58L210.58-15.58Q210.58-14.01 211.47-12.90L211.47-12.90Q218.38-3.98 234.88 13.85L234.88 13.85Q246.47 26.34 246.47 30.35L246.47 30.35Q246.47 31.91 245.36 32.80L245.36 32.80L244.02 33.03Z"/></g></svg>
