<?xml version="1.0" encoding="UTF-8" standalone="no" ?>
<!DOCTYPE svg PUBLIC "-//W3C//DTD SVG 1.1//EN" "http://www.w3.org/Graphics/SVG/1.1/DTD/svg11.dtd">
<svg xmlns="http://www.w3.org/2000/svg" xmlns:xlink="http://www.w3.org/1999/xlink" version="1.1" width="500" height="500" viewBox="0 0 500 500" xml:space="preserve">
<desc>Created with Fabric.js 3.6.3</desc>
<defs>
</defs>
<g transform="matrix(1 0 0 1 -484.1718181818181 277.9812656226088)" style=""  ><path fill="#000000" opacity="1" d="M35.65-207.38L87.52-138.39L77.33-33.74L27.32-6.88L-8.33-43.92L-7.87 55.17L-25.47 28.31L-27.32 24.61L-24.54 145.46L-39.36 122.31L-49.55 233.44L-82.89 42.20L-66.22 53.32L-83.81-61.52L-60.66-51.33L-80.11-213.86L-8.80-213.86L-8.80-188.86L35.65-207.38ZM23.62-35.59L32.88-47.63L27.32-183.30L-8.80-168.49L-8.33-52.26L23.62-35.59Z"/></g><g transform="matrix(1 0 0 1 250.25 259.37675)" style=""  ><path fill="#ffffff" opacity="1" d="M-83.76 32.26L-83.52 34.15Q-90.16 39.84-109.35 55.24L-109.35 55.24Q-134.71 75.62-143.00 75.62L-143.00 75.62Q-144.18 75.62-144.66 74.91L-144.66 74.91L-174.28 39.37Q-180.44 26.10-180.44 21.83L-180.44 21.83Q-180.44 16.62-174.75 13.07L-174.75 13.07L-166.46 7.85L-148.45 3.59Q-151.77 6.67-155.08 9.51L-155.08 9.51Q-158.64 13.30-159.11 17.33L-159.11 17.33Q-157.45 23.25-146.32 37.95L-146.32 37.95Q-134.47 53.58-130.44 52.40L-130.44 52.40Q-126.41 45.29-115.04 32.73L-115.04 32.73L-116.93 33.21Q-115.28 32.02-115.28 29.65L-115.28 29.65Q-115.28 24.20-149.63-15.25Q-183.99-54.70-183.99-57.78L-183.99-57.78Q-183.99-59.68-182.57-60.63L-182.57-60.63L-179.02-64.89L-152.95-85.74Q-127.36-106.12-119.54-106.12L-119.54-106.12Q-118.36-106.12-117.65-105.41L-117.65-105.41L-88.03-69.87Q-81.87-56.60-81.87-52.33L-81.87-52.33Q-81.87-47.12-87.79-43.57L-87.79-43.57L-111.25-37.64L-111.48-39.30Q-108.88-41.91-105.32-44.04L-105.32-44.04Q-104.14-44.51-103.67-48.07L-103.67-48.07Q-105.56-54.23-120.25-66.91Q-134.94-79.58-140.39-78.40L-140.39-78.40Q-143.47-77.69-147.03-72.12Q-150.58-66.55-150.58-63.23L-150.58-63.23Q-150.58-60.39-148.45-57.55L-148.45-57.55Q-133.76-38.59-102.01-4.71L-102.01-4.71Q-79.02 19.70-79.02 27.28L-79.02 27.28Q-79.02 29.89-81.16 31.78L-81.16 31.78L-83.76 32.26Z"/><path fill="#ffffff" opacity="1" d="M-3.91 40.55L-3.91 40.55L-3.91-49.25L-26.66-64.89Q-33.05-62.76-34.71-61.34L-34.71-61.34Q-38.50-58.02-47.75-44.04L-47.75-44.04L-48.22-99.72Q-49.17-104.94-43.01-112.52L-43.01-112.52L-72.86-110.15Q-68.12-104.46-68.12-98.54L-68.12-98.54L-70.26 31.07Q-71.44 36.05-75.23 39.37L-75.23 39.37L-44.90 40.08Q-49.88 36.29-48.69 28.70L-48.69 28.70L-48.22-34.80Q-32.58-52.57-30.45-52.57L-30.45-52.57Q-29.26-52.57-28.55-51.38L-28.55-51.38L-24.76-41.43Q-24.05-24.14-24.29 3.82L-24.29 3.82Q-24.52 32.50-25.47 33.92L-25.47 33.92Q-26.18 49.08-42.53 61.64L-42.53 61.64Q-30.45 58.56-29.26 58.09L-29.26 58.09Q-16.47 52.87-3.91 40.55Z"/><path fill="#ffffff" opacity="1" d="M19.79-28.16L14.81-27.93L7.70-37.40Q3.91-42.38 3.91-48.07L3.91-48.07Q3.91-50.20 5.09-51.62L5.09-51.62Q7.46-54.70 28.32-67.02L28.32-67.02Q36.13-61.34 44.90-54.47L44.90-54.47Q57.46-44.51 56.28-38.35L56.28-38.35L55.33 15.67L64.09 16.15L47.03 35.34Q41.11 39.60 38.50 39.60L38.50 39.60Q36.13 39.60 36.85 36.76L36.85 36.76L36.85 28.23L21.68 37.71Q11.26 39.60 2.25-3.52L2.25-3.52Q6.28-11.58 16.94-16.32L16.94-16.32L32.58-23.42Q24.52-14.66 24.76-9.68L24.76-9.68Q24.29-6.36 24.29-3.05L24.29-3.05Q24.29 12.83 31.16 22.07L31.16 22.07Q34.95 22.54 36.37 17.80L36.37 17.80L36.37-51.62L32.82-49.73Q31.63-49.02 26.42-45.70L26.42-45.70Q17.65-40.25 17.65-35.98L17.65-35.98L19.79-28.16Z"/><path fill="#ffffff" opacity="1" d="M77.60-61.81L65.28-61.34Q77.36-69.63 92.77-81.95L92.77-81.95L92.77-60.63Q105.09-71.29 108.88-71.29L108.88-71.29Q110.06-71.29 110.54-70.58L110.54-70.58L121.67-51.15Q123.57-49.02 123.57-46.88L123.57-46.88Q123.57-44.51 121.20-43.80L121.20-43.80L99.40-31.01L99.40-31.96Q104.38-36.69 105.09-40.72L105.09-40.72Q104.14-44.28 101.77-49.49L101.77-49.49Q98.69-56.12 97.03-55.65L97.03-55.65Q95.61-55.41 93.48-52.57L93.48-52.57Q92.53-17.26 94.66 17.09L94.66 17.09Q95.14 24.68 102.01 26.33L102.01 26.33Q98.69 26.33 91.94 26.10Q85.18 25.86 81.87 25.86L81.87 25.86Q79.73 25.86 75.35 26.10Q70.97 26.33 68.83 26.33L68.83 26.33Q74.99 23.73 76.18 22.07L76.18 22.07Q77.13 21.12 77.13 17.33L77.13 17.33L77.60-61.81Z"/><path fill="#ffffff" opacity="1" d="M175.94-37.40L182.57-14.66L176.65-2.34Q167.41-7.79 155.56-7.79L155.56-7.79Q148.45-7.79 146.79-5.89L146.79-5.89L148.45 32.97Q150.34 37.00 156.51 40.31L156.51 40.31Q161.24 34.15 162.90 24.91L162.90 24.91Q163.14 23.97 164.09 12.83L164.09 12.83L174.51 26.10L160.06 46.71L147.98 46.95L124.04 26.10Q122.15 17.09 122.15 5.48L122.15 5.48Q122.15-11.10 125.47-29.35L125.47-29.35L152.00-50.20Q154.85-51.15 156.74-49.96L156.74-49.96L175.94-37.40ZM165.51-13.24L165.51-13.24L153.43-40.49Q151.77-42.62 151.29-42.62L151.29-42.62Q150.34-42.62 149.40-40.96L149.40-40.96L146.55-13.95Q159.82-14.66 165.51-13.24Z"/></g></svg>
