<?xml version="1.0" encoding="UTF-8" standalone="no" ?>
<!DOCTYPE svg PUBLIC "-//W3C//DTD SVG 1.1//EN" "http://www.w3.org/Graphics/SVG/1.1/DTD/svg11.dtd">
<svg xmlns="http://www.w3.org/2000/svg" xmlns:xlink="http://www.w3.org/1999/xlink" version="1.1" width="500" height="500" viewBox="0 0 500 500" xml:space="preserve">
<desc>Created with Fabric.js 3.6.3</desc>
<defs>
</defs>
<g transform="matrix(1 0 0 1 -483.27727272727265 277.9812656226088)" style=""  ><path fill="#000000" opacity="1" d="M35.65-207.38L87.52-138.39L77.33-33.74L27.32-6.88L-8.33-43.92L-7.87 55.17L-25.47 28.31L-27.32 24.61L-24.54 145.46L-39.36 122.31L-49.55 233.44L-82.89 42.20L-66.22 53.32L-83.81-61.52L-60.66-51.33L-80.11-213.86L-8.80-213.86L-8.80-188.86L35.65-207.38ZM23.62-35.59L32.88-47.63L27.32-183.30L-8.80-168.49L-8.33-52.26L23.62-35.59Z"/></g><g transform="matrix(1 0 0 1 250.25 250.25000000000006)" style=""  ><path fill="#ffffff" opacity="1" d="M-90.15 31.71L-89.92 33.58Q-96.44 39.17-115.31 54.31L-115.31 54.31Q-140.24 74.34-148.39 74.34L-148.39 74.34Q-149.55 74.34-150.02 73.64L-150.02 73.64L-179.14 38.70Q-185.20 25.66-185.20 21.46L-185.20 21.46Q-185.20 16.34-179.60 12.84L-179.60 12.84L-171.45 7.72L-153.75 3.53Q-157.01 6.56-160.27 9.35L-160.27 9.35Q-163.76 13.08-164.23 17.04L-164.23 17.04Q-162.60 22.86-151.65 37.30L-151.65 37.30Q-140.00 52.68-136.04 51.51L-136.04 51.51Q-132.08 44.53-120.90 32.18L-120.90 32.18L-122.76 32.65Q-121.13 31.48-121.13 29.15L-121.13 29.15Q-121.13 23.79-154.91-14.99Q-188.69-53.78-188.69-56.81L-188.69-56.81Q-188.69-58.67-187.29-59.60L-187.29-59.60L-183.80-63.80L-158.17-84.30Q-133.01-104.33-125.33-104.33L-125.33-104.33Q-124.16-104.33-123.46-103.63L-123.46-103.63L-94.34-68.69Q-88.29-55.64-88.29-51.45L-88.29-51.45Q-88.29-46.32-94.11-42.83L-94.11-42.83L-117.17-37.01L-117.41-38.64Q-114.84-41.20-111.35-43.30L-111.35-43.30Q-110.19-43.76-109.72-47.26L-109.72-47.26Q-111.58-53.31-126.03-65.78Q-140.47-78.24-145.83-77.07L-145.83-77.07Q-148.86-76.37-152.35-70.90Q-155.84-65.43-155.84-62.17L-155.84-62.17Q-155.84-59.37-153.75-56.57L-153.75-56.57Q-139.30-37.94-108.09-4.63L-108.09-4.63Q-85.49 19.37-85.49 26.82L-85.49 26.82Q-85.49 29.38-87.59 31.25L-87.59 31.25L-90.15 31.71Z"/><path fill="#ffffff" opacity="1" d="M-20.27 32.41L-20.27 32.41Q-19.10 38.24-33.08 45.46L-33.08 45.46Q-44.73 51.51-52.18 52.45L-52.18 52.45L-56.37 51.75Q-79.90 33.58-81.30 28.45L-81.30 28.45Q-81.77 17.50-79.20-25.59L-79.20-25.59Q-63.13-37.24-45.89-43.30L-45.89-43.30L-29.35-31.88L-27.49-28.85Q-22.36-23.96-21.43-7.89L-21.43-7.89Q-20.97 0.27-20.27 32.41ZM-42.63 38.00L-42.63 38.00Q-42.63-22.80-47.06-33.98L-47.06-33.98L-54.51-29.55Q-58.47-26.52-59.64-23.26L-59.64-23.26L-58.47 38.00Q-56.84 42.66-52.18 44.76L-52.18 44.76Q-45.19 42.66-42.63 38.00Z"/><path fill="#ffffff" opacity="1" d="M23.76-6.72L45.19-21.17L42.16-29.78L23.29-42.13Q22.13-42.83 18.87-42.83L18.87-42.83Q15.37-42.83 13.98-42.36L13.98-42.36L-12.11-21.86Q-15.37-3.93-15.37 12.38L-15.37 12.38Q-15.37 23.79-13.51 32.65L-13.51 32.65L10.02 53.15L21.90 52.91L42.86 31.71L32.61 18.67L31.68 27.99Q31.45 30.32 31.45 30.55L31.45 30.55Q30.75 34.28 25.62 39.40L25.62 39.40L18.40 46.62Q12.35 43.36 10.48 39.40L10.48 39.40L8.15-6.72L11.41-33.28Q12.35-34.91 13.28-34.91L13.28-34.91Q24.46-24.66 27.49-20.70L27.49-20.70Q28.19-14.41 23.76-6.72L23.76-6.72Z"/><path fill="#ffffff" opacity="1" d="M48.92 56.17L48.92 56.17L81.07 56.17Q73.85 52.21 75.01 43.59L75.01 43.59Q76.87 29.62 77.57 5.62L77.57 5.62Q78.27-18.84 77.34-36.54L77.34-36.54L56.37-36.54Q58.00-13.94 58.00 4.69L58.00 4.69Q58.00 29.38 55.44 45.92L55.44 45.92Q54.28 53.15 48.92 56.17ZM64.06-77.31L64.06-77.31Q67.09-75.21 71.28-75.21L71.28-75.21Q72.21-75.21 74.31-75.68Q76.41-76.14 77.34-76.14L77.34-76.14Q79.90-76.14 79.90-54.94L79.90-54.94Q73.15-48.42 64.06-47.49L64.06-47.49Q58.47-53.55 54.98-64.26L54.98-64.26Q55.44-67.99 55.68-71.48L55.68-71.48Q57.31-76.84 64.06-77.31Z"/><path fill="#ffffff" opacity="1" d="M107.86-27.69L102.96-27.46L95.98-36.77Q92.25-41.67 92.25-47.26L92.25-47.26Q92.25-49.35 93.41-50.75L93.41-50.75Q95.74-53.78 116.24-65.89L116.24-65.89Q123.93-60.30 132.55-53.55L132.55-53.55Q144.89-43.76 143.73-37.71L143.73-37.71L142.80 15.41L151.42 15.87L134.65 34.74Q128.82 38.94 126.26 38.94L126.26 38.94Q123.93 38.94 124.63 36.14L124.63 36.14L124.63 27.75L109.72 37.07Q99.47 38.94 90.62-3.46L90.62-3.46Q94.58-11.38 105.06-16.04L105.06-16.04L120.44-23.03Q112.51-14.41 112.75-9.52L112.75-9.52Q112.28-6.26 112.28-3.00L112.28-3.00Q112.28 12.61 119.04 21.70L119.04 21.70Q122.76 22.16 124.16 17.50L124.16 17.50L124.16-50.75L120.67-48.89Q119.50-48.19 114.38-44.93L114.38-44.93Q105.76-39.57 105.76-35.38L105.76-35.38L107.86-27.69Z"/><path fill="#ffffff" opacity="1" d="M180.77-67.99L179.84 52.68Q179.37 53.61 179.37 54.54L179.37 54.54Q179.37 58.74 190.55 68.29L190.55 68.29L171.45 61.30Q160.27 57.11 159.57 51.28L159.57 51.28L160.50-78.94Q172.15-85.23 173.31-86.86L173.31-86.86L181.24-97.57L180.77-67.99Z"/></g></svg>
