<?xml version="1.0" encoding="UTF-8" standalone="no" ?>
<!DOCTYPE svg PUBLIC "-//W3C//DTD SVG 1.1//EN" "http://www.w3.org/Graphics/SVG/1.1/DTD/svg11.dtd">
<svg xmlns="http://www.w3.org/2000/svg" xmlns:xlink="http://www.w3.org/1999/xlink" version="1.1" width="500" height="500" viewBox="0 0 500 500" xml:space="preserve">
<desc>Created with Fabric.js 3.6.3</desc>
<defs>
</defs>
<g transform="matrix(1 0 0 1 -484.1718181818181 277.9812656226088)" style=""  ><path fill="#000000" opacity="1" d="M35.65-207.38L87.52-138.39L77.33-33.74L27.32-6.88L-8.33-43.92L-7.87 55.17L-25.47 28.31L-27.32 24.61L-24.54 145.46L-39.36 122.31L-49.55 233.44L-82.89 42.20L-66.22 53.32L-83.81-61.52L-60.66-51.33L-80.11-213.86L-8.80-213.86L-8.80-188.86L35.65-207.38ZM23.62-35.59L32.88-47.63L27.32-183.30L-8.80-168.49L-8.33-52.26L23.62-35.59Z"/></g><g transform="matrix(1 0 0 1 250.25 259.37675)" style=""  ><path fill="#ffffff" opacity="1" d="M-125.47 64.96L-125.47 64.96Q-125.47 66.14-128.31 73.72L-128.31 73.72L-138.97 102.40Q-139.68 103.11-140.63 102.87L-140.63 102.87Q-147.50 99.55-157.45 96.47L-157.45 96.47Q-179.49 89.60-203.42 86.76L-203.42 86.76Q-220.72 84.62-223.09 83.44L-223.09 83.44Q-227.59 81.07-229.96 70.17L-229.96 70.17L-232.33-0.91L-232.09-69.39Q-232.09-82.19-239.20-82.43L-239.20-82.43Q-237.31-82.66-217.64-82.19L-217.64-82.19Q-204.84-81.95-196.79-83.85L-196.79-83.85Q-202.00-77.92-203.18-75.79L-203.18-75.79Q-205.55-71.53-205.55-65.84L-205.55-65.84Q-205.55-34.80-204.61 63.54L-204.61 63.54Q-204.61 65.67-200.10 67.33L-200.10 67.33Q-198.45 68.04-184.23 71.83L-184.23 71.83Q-166.93 76.57-158.40 76.57L-158.40 76.57Q-156.74 76.57-153.66 75.03Q-150.58 73.49-151.06 73.49L-151.06 73.49Q-150.11 73.72-148.92 68.75L-148.92 68.75L-145.37 52.40Q-146.08 48.37-151.29 42.45L-151.29 42.45L-151.29 41.50L-129.26 59.03Q-125.47 62.11-125.47 64.96Z"/><path fill="#ffffff" opacity="1" d="M-118.36 57.14L-118.36 57.14L-85.66 57.14Q-93.00 53.11-91.82 44.34L-91.82 44.34Q-89.92 30.13-89.21 5.72L-89.21 5.72Q-88.50-19.16-89.45-37.17L-89.45-37.17L-110.77-37.17Q-109.12-14.18-109.12 4.77L-109.12 4.77Q-109.12 29.89-111.72 46.71L-111.72 46.71Q-112.91 54.06-118.36 57.14ZM-102.95-78.63L-102.95-78.63Q-99.87-76.50-95.61-76.50L-95.61-76.50Q-94.66-76.50-92.53-76.98Q-90.40-77.45-89.45-77.45L-89.45-77.45Q-86.84-77.45-86.84-55.89L-86.84-55.89Q-93.71-49.25-102.95-48.30L-102.95-48.30Q-108.64-54.47-112.20-65.37L-112.20-65.37Q-111.72-69.16-111.48-72.71L-111.48-72.71Q-109.83-78.16-102.95-78.63Z"/><path fill="#ffffff" opacity="1" d="M-79.26 53.11L-79.26 53.11L-54.38 54.29L-54.38 43.87L-36.37 53.35L-12.20 18.04L-17.42-35.51L-40.64-49.25L-54.14-30.30L-54.62-85.98Q-55.56-91.19-49.40-98.77L-49.40-98.77L-76.89-96.41Q-72.15-90.72-72.15-84.79L-72.15-84.79L-74.28 44.82Q-75.47 49.79-79.26 53.11ZM-42.53-35.75L-35.42-29.59Q-33.29-10.87-33.29 4.30L-33.29 4.30Q-33.29 27.52-38.27 39.84L-38.27 39.84L-54.38 32.26L-54.62-21.06L-42.53-35.75Z"/><path fill="#ffffff" opacity="1" d="M2.72-61.81L-9.60-61.34Q2.49-69.63 17.89-81.95L17.89-81.95L17.89-60.63Q30.21-71.29 34.00-71.29L34.00-71.29Q35.19-71.29 35.66-70.58L35.66-70.58L46.80-51.15Q48.69-49.02 48.69-46.88L48.69-46.88Q48.69-44.51 46.32-43.80L46.32-43.80L24.52-31.01L24.52-31.96Q29.50-36.69 30.21-40.72L30.21-40.72Q29.26-44.28 26.89-49.49L26.89-49.49Q23.81-56.12 22.15-55.65L22.15-55.65Q20.73-55.41 18.60-52.57L18.60-52.57Q17.65-17.26 19.79 17.09L19.79 17.09Q20.26 24.68 27.13 26.33L27.13 26.33Q23.81 26.33 17.06 26.10Q10.31 25.86 6.99 25.86L6.99 25.86Q4.86 25.86 0.47 26.10Q-3.91 26.33-6.04 26.33L-6.04 26.33Q0.12 23.73 1.30 22.07L1.30 22.07Q2.25 21.12 2.25 17.33L2.25 17.33L2.72-61.81Z"/><path fill="#ffffff" opacity="1" d="M65.99-28.16L61.01-27.93L53.91-37.40Q50.11-42.38 50.11-48.07L50.11-48.07Q50.11-50.20 51.30-51.62L51.30-51.62Q53.67-54.70 74.52-67.02L74.52-67.02Q82.34-61.34 91.11-54.47L91.11-54.47Q103.67-44.51 102.48-38.35L102.48-38.35L101.53 15.67L110.30 16.15L93.24 35.34Q87.32 39.60 84.71 39.60L84.71 39.60Q82.34 39.60 83.05 36.76L83.05 36.76L83.05 28.23L67.89 37.71Q57.46 39.60 48.46-3.52L48.46-3.52Q52.48-11.58 63.15-16.32L63.15-16.32L78.79-23.42Q70.73-14.66 70.97-9.68L70.97-9.68Q70.49-6.36 70.49-3.05L70.49-3.05Q70.49 12.83 77.36 22.07L77.36 22.07Q81.16 22.54 82.58 17.80L82.58 17.80L82.58-51.62L79.02-49.73Q77.84-49.02 72.63-45.70L72.63-45.70Q63.86-40.25 63.86-35.98L63.86-35.98L65.99-28.16Z"/><path fill="#ffffff" opacity="1" d="M123.81-61.81L111.48-61.34Q123.57-69.63 138.97-81.95L138.97-81.95L138.97-60.63Q151.29-71.29 155.08-71.29L155.08-71.29Q156.27-71.29 156.74-70.58L156.74-70.58L167.88-51.15Q169.77-49.02 169.77-46.88L169.77-46.88Q169.77-44.51 167.41-43.80L167.41-43.80L145.61-31.01L145.61-31.96Q150.58-36.69 151.29-40.72L151.29-40.72Q150.34-44.28 147.98-49.49L147.98-49.49Q144.89-56.12 143.24-55.65L143.24-55.65Q141.81-55.41 139.68-52.57L139.68-52.57Q138.73-17.26 140.87 17.09L140.87 17.09Q141.34 24.68 148.21 26.33L148.21 26.33Q144.89 26.33 138.14 26.10Q131.39 25.86 128.07 25.86L128.07 25.86Q125.94 25.86 121.56 26.10Q117.17 26.33 115.04 26.33L115.04 26.33Q121.20 23.73 122.38 22.07L122.38 22.07Q123.33 21.12 123.33 17.33L123.33 17.33L123.81-61.81Z"/><path fill="#ffffff" opacity="1" d="M168.59-33.14L168.59-33.14L203.42-33.14Q196.79-31.72 196.55-26.98L196.55-26.98L199.39-10.39Q201.29 0.74 203.42 0.98L203.42 0.98Q204.84 0.74 221.90-35.27L221.90-35.27Q221.67-37.88 220.72-38.35L220.72-38.35L214.80-41.20L242.76-40.72Q230.91-18.69 213.14 13.30L213.14 13.30Q185.89 62.35 181.39 62.35L181.39 62.35Q181.15 62.35 180.91 62.11L180.91 62.11Q151.29 59.51 147.03 57.85L147.03 57.85Q136.36 56.43 121.91 48.13L121.91 48.13Q119.54 46.71 119.54 45.29L119.54 45.29Q119.54 43.63 122.38 40.31L122.38 40.31Q128.31 33.44 128.78 32.73L128.78 32.73Q138.73 32.26 144.89 32.26L144.89 32.26Q150.82 32.26 153.19 32.73L153.19 32.73Q152.95 34.39 151.53 34.86L151.53 34.86Q148.69 36.29 136.60 39.13L136.60 39.13L132.34 44.58Q140.63 48.84 174.99 48.61L174.99 48.61L186.84 27.76Q188.49 23.49 188.49 18.99L188.49 18.99Q188.49 7.62 174.75-28.87L174.75-28.87Q172.86-31.01 168.59-33.14Z"/></g></svg>
