<?xml version="1.0" encoding="UTF-8" standalone="no" ?>
<!DOCTYPE svg PUBLIC "-//W3C//DTD SVG 1.1//EN" "http://www.w3.org/Graphics/SVG/1.1/DTD/svg11.dtd">
<svg xmlns="http://www.w3.org/2000/svg" xmlns:xlink="http://www.w3.org/1999/xlink" version="1.1" width="500" height="500" viewBox="0 0 500 500" xml:space="preserve">
<desc>Created with Fabric.js 3.6.3</desc>
<defs>
</defs>
<g transform="matrix(1 0 0 1 -484.1718181818181 277.9812656226088)" style=""  ><path fill="#000000" opacity="1" d="M35.65-207.38L87.52-138.39L77.33-33.74L27.32-6.88L-8.33-43.92L-7.87 55.17L-25.47 28.31L-27.32 24.61L-24.54 145.46L-39.36 122.31L-49.55 233.44L-82.89 42.20L-66.22 53.32L-83.81-61.52L-60.66-51.33L-80.11-213.86L-8.80-213.86L-8.80-188.86L35.65-207.38ZM23.62-35.59L32.88-47.63L27.32-183.30L-8.80-168.49L-8.33-52.26L23.62-35.59Z"/></g><g transform="matrix(1 0 0 1 250.25 257.33616562260863)" style=""  ><path fill="#ffffff" opacity="1" d="M-85.78-118.94L-85.38-60.56L-92.98-72.15L-93.78-73.75L-92.58-21.57L-98.98-31.56L-103.37 16.42L-117.77-66.16L-110.57-61.36L-118.17-110.94L-108.17-106.55L-113.77-153.53Q-116.57-157.33-120.17-161.13L-120.17-161.13L-114.57-160.93L-84.18-160.73Q-87.38-159.93-87.38-153.13L-87.38-153.13Q-87.38-152.53-86.18-150.53Q-84.98-148.53-84.78-148.13L-84.78-148.13L-45.19-49.56L-45.19-142.74Q-45.19-150.73-51.19-152.33L-51.19-152.33L-51.39-152.93L-18.20-152.93L-18.20-152.73Q-24.59-150.93-24.59-142.74L-24.59-142.74L-24.59-31.76Q-24.59-23.17-18.60-21.57L-18.60-21.57L-58.59-21.57Q-56.79-21.97-54.39-24.37Q-51.99-26.77-51.99-28.56L-51.99-28.56Q-51.99-27.57-54.99-35.76L-54.99-35.76L-85.78-118.94Z"/><path fill="#ffffff" opacity="1" d="M39.59-62.56L39.59-62.56Q40.59-57.56 28.59-51.36L28.59-51.36Q18.60-46.16 12.20-45.36L12.20-45.36L8.60-45.96Q-11.60-61.56-12.80-65.96L-12.80-65.96Q-13.20-75.35-11.00-112.34L-11.00-112.34Q2.80-122.34 17.60-127.54L17.60-127.54L31.79-117.74L33.39-115.14Q37.79-110.94 38.59-97.15L38.59-97.15Q38.99-90.15 39.59-62.56ZM20.39-57.76L20.39-57.76Q20.39-109.94 16.60-119.54L16.60-119.54L10.20-115.74Q6.80-113.14 5.80-110.34L5.80-110.34L6.80-57.76Q8.20-53.76 12.20-51.96L12.20-51.96Q18.20-53.76 20.39-57.76Z"/><path fill="#ffffff" opacity="1" d="M125.57-83.75L100.97-52.96Q100.37-52.56 99.98-52.56L99.98-52.56Q99.78-52.56 99.68-52.76Q99.58-52.96 99.38-52.96L99.38-52.96Q98.98-52.96 98.58-52.56L98.58-52.56L96.98-51.36Q97.98-52.96 97.98-53.16L97.98-53.16Q97.38-53.36 96.38-54.16L96.38-54.16L84.98-70.55Q84.78-69.15 84.78-69.95L84.78-69.95Q82.78-68.35 79.98-63.66Q77.18-58.96 75.78-57.96L75.78-57.96Q67.38-51.56 65.78-51.56L65.78-51.56Q64.78-51.56 64.38-52.16L64.38-52.16L48.99-70.55Q48.39-71.15 48.59-84.55L48.59-84.55Q48.79-90.95 49.19-109.74L49.19-109.74Q49.19-112.14 49.69-117.44Q50.19-122.74 50.19-125.54L50.19-125.54Q50.19-130.14 42.59-131.94L42.59-131.94L54.59-132.34L72.38-131.14Q67.38-129.74 66.78-125.54L66.78-125.54Q67.18-123.74 66.58-103.55L66.58-103.55L65.78-78.15Q65.78-71.95 66.18-71.15L66.18-71.15Q67.98-67.36 71.58-68.35L71.58-68.35Q74.78-73.55 80.38-81.15L80.38-81.15L80.38-97.95Q80.38-103.95 80.58-107.95L80.58-107.95L80.78-111.94Q80.98-113.94 82.78-114.54L82.78-114.54L93.18-123.34L93.18-122.54Q92.18-121.74 92.18-120.94L92.18-120.94Q92.18-120.34 93.28-119.04Q94.38-117.74 94.38-117.14L94.38-117.14Q93.58-97.75 94.18-75.15L94.18-75.15Q94.18-72.35 96.98-65.96L96.98-65.96Q98.78-66.36 108.77-79.35L108.77-79.35Q108.77-82.95 109.77-100.95L109.77-100.95Q110.37-111.94 109.77-122.14L109.77-122.14Q109.37-128.54 103.57-129.94L103.57-129.94Q106.77-129.94 113.07-129.74Q119.37-129.54 122.57-129.54L122.57-129.54Q124.37-129.54 128.07-129.74Q131.77-129.94 133.57-129.94L133.57-129.94Q128.97-127.94 128.37-127.34L128.37-127.34Q126.57-125.94 126.57-122.34L126.57-122.34L125.57-83.75Z"/><path fill="#ffffff" opacity="1" d="M-154.46 145.19L-154.46 145.19Q-154.46 146.19-156.86 152.59L-156.86 152.59L-165.86 176.78Q-166.46 177.38-167.26 177.18L-167.26 177.18Q-173.06 174.38-181.45 171.79L-181.45 171.79Q-200.05 165.99-220.24 163.59L-220.24 163.59Q-234.84 161.79-236.84 160.79L-236.84 160.79Q-240.64 158.79-242.64 149.59L-242.64 149.59L-244.64 89.61L-244.44 31.82Q-244.44 21.02-250.44 20.82L-250.44 20.82Q-248.84 20.62-232.24 21.02L-232.24 21.02Q-221.44 21.22-214.65 19.62L-214.65 19.62Q-219.05 24.62-220.04 26.42L-220.04 26.42Q-222.04 30.02-222.04 34.82L-222.04 34.82Q-222.04 61.01-221.24 143.99L-221.24 143.99Q-221.24 145.79-217.45 147.19L-217.45 147.19Q-216.05 147.79-204.05 150.99L-204.05 150.99Q-189.45 154.99-182.25 154.99L-182.25 154.99Q-180.85 154.99-178.26 153.69Q-175.66 152.39-176.06 152.39L-176.06 152.39Q-175.26 152.59-174.26 148.39L-174.26 148.39L-171.26 134.59Q-171.86 131.20-176.26 126.20L-176.26 126.20L-176.26 125.40L-157.66 140.19Q-154.46 142.79-154.46 145.19Z"/><path fill="#ffffff" opacity="1" d="M-148.46 138.59L-148.46 138.59L-120.87 138.59Q-127.07 135.19-126.07 127.80L-126.07 127.80Q-124.47 115.80-123.87 95.20L-123.87 95.20Q-123.27 74.21-124.07 59.01L-124.07 59.01L-142.06 59.01Q-140.66 78.41-140.66 94.40L-140.66 94.40Q-140.66 115.60-142.86 129.80L-142.86 129.80Q-143.86 135.99-148.46 138.59ZM-135.47 24.02L-135.47 24.02Q-132.87 25.82-129.27 25.82L-129.27 25.82Q-128.47 25.82-126.67 25.42Q-124.87 25.02-124.07 25.02L-124.07 25.02Q-121.87 25.02-121.87 43.22L-121.87 43.22Q-127.67 48.82-135.47 49.62L-135.47 49.62Q-140.26 44.42-143.26 35.22L-143.26 35.22Q-142.86 32.02-142.66 29.02L-142.66 29.02Q-141.26 24.42-135.47 24.02Z"/><path fill="#ffffff" opacity="1" d="M-65.48 120.00L-65.48 121.00Q-67.08 122.20-78.28 130.80L-78.28 130.80Q-90.88 140.39-94.88 140.39L-94.88 140.39Q-95.48 140.39-95.68 139.99L-95.68 139.99L-109.07 123.60Q-111.67 117.80-111.67 115.60L-111.67 115.60Q-111.67 113.20-108.67 111.40L-108.67 111.40L-104.67 109.00L-95.88 107.00Q-97.48 108.60-97.48 111.00L-97.48 111.00Q-97.48 111.80-96.98 114.50Q-96.48 117.20-96.68 118.20L-96.68 118.20Q-96.08 120.60-91.28 124.30Q-86.48 128.00-84.28 127.40L-84.28 127.40Q-84.28 125.20-80.48 120.40L-80.48 120.40L-81.48 120.60Q-80.68 120.00-80.68 118.80L-80.68 118.80Q-80.68 116.20-96.18 98.30Q-111.67 80.41-111.67 78.81L-111.67 78.81Q-111.67 77.81-110.87 77.41L-110.87 77.41L-109.07 75.41Q-107.47 74.21-96.28 65.61L-96.28 65.61Q-83.68 56.01-79.68 56.01L-79.68 56.01Q-79.08 56.01-78.88 56.41L-78.88 56.41L-65.48 72.81Q-62.88 78.61-62.88 80.81L-62.88 80.81Q-62.88 83.21-65.88 85.01L-65.88 85.01L-80.28 88.21L-80.28 87.41Q-78.68 85.81-78.68 83.21L-78.68 83.21Q-78.68 82.21-79.18 79.41Q-79.68 76.61-79.48 75.41L-79.48 75.41Q-80.08 73.01-83.18 70.91Q-86.28 68.81-88.88 68.81L-88.88 68.81Q-91.08 68.81-93.28 71.41Q-95.48 74.01-95.48 76.41L-95.48 76.41Q-95.48 77.81-94.68 78.81L-94.68 78.81Q-88.48 86.81-73.68 102.80L-73.68 102.80Q-63.28 114.00-63.28 117.60L-63.28 117.60Q-63.28 119.00-64.28 119.80L-64.28 119.80L-65.48 120.00Z"/><path fill="#ffffff" opacity="1" d="M-25.69 42.02L-23.89 50.62L-35.09 50.62L-36.89 135.59Q-37.29 136.39-37.29 137.19L-37.29 137.19Q-37.29 140.79-27.69 148.99L-27.69 148.99L-44.09 142.99Q-53.69 139.39-54.29 134.39L-54.29 134.39L-53.29 49.82L-70.08 49.82Q-52.89 40.22-35.69 16.62L-35.69 16.62L-36.09 42.02L-25.69 42.02Z"/><path fill="#ffffff" opacity="1" d="M24.49 58.81L30.09 78.01L25.09 88.41Q17.30 83.81 7.30 83.81L7.30 83.81Q1.30 83.81-0.10 85.41L-0.10 85.41L1.30 118.20Q2.90 121.60 8.10 124.40L8.10 124.40Q12.10 119.20 13.50 111.40L13.50 111.40Q13.70 110.60 14.50 101.20L14.50 101.20L23.29 112.40L11.10 129.80L0.90 130.00L-19.30 112.40Q-20.89 104.80-20.89 95.00L-20.89 95.00Q-20.89 81.01-18.10 65.61L-18.10 65.61L4.30 48.02Q6.70 47.22 8.30 48.22L8.30 48.22L24.49 58.81ZM15.70 79.21L15.70 79.21L5.50 56.21Q4.10 54.41 3.70 54.41L3.70 54.41Q2.90 54.41 2.10 55.81L2.10 55.81L-0.30 78.61Q10.90 78.01 15.70 79.21Z"/><path fill="#ffffff" opacity="1" d="M42.69 66.21L32.29 66.61Q42.49 59.61 55.49 49.22L55.49 49.22L55.49 67.21Q59.29 62.61 65.08 56.61L65.08 56.61Q73.48 50.22 75.08 50.22L75.08 50.22Q76.08 50.22 76.48 50.82L76.48 50.82L87.88 67.21Q88.08 67.41 88.08 132.59L88.08 132.59Q88.08 134.59 86.08 135.19L86.08 135.19L67.68 145.99L67.68 145.19Q71.88 141.19 72.48 137.79L72.48 137.79Q72.28 104.20 70.68 67.81L70.68 67.81Q68.68 63.81 63.08 65.41L63.08 65.41Q62.48 65.61 56.09 74.01L56.09 74.01Q55.49 96.80 57.09 122.80L57.09 122.80Q57.49 129.20 63.28 130.60L63.28 130.60Q60.48 130.60 54.79 130.40Q49.09 130.20 46.29 130.20L46.29 130.20Q44.49 130.20 40.79 130.40Q37.09 130.60 35.29 130.60L35.29 130.60Q40.49 128.40 41.49 127.00L41.49 127.00Q42.29 126.20 42.29 123.00L42.29 123.00L42.69 66.21Z"/><path fill="#ffffff" opacity="1" d="M93.88 138.59L93.88 138.59L121.47 138.59Q115.27 135.19 116.27 127.80L116.27 127.80Q117.87 115.80 118.47 95.20L118.47 95.20Q119.07 74.21 118.27 59.01L118.27 59.01L100.27 59.01Q101.67 78.41 101.67 94.40L101.67 94.40Q101.67 115.60 99.48 129.80L99.48 129.80Q98.48 135.99 93.88 138.59ZM106.87 24.02L106.87 24.02Q109.47 25.82 113.07 25.82L113.07 25.82Q113.87 25.82 115.67 25.42Q117.47 25.02 118.27 25.02L118.27 25.02Q120.47 25.02 120.47 43.22L120.47 43.22Q114.67 48.82 106.87 49.62L106.87 49.62Q102.07 44.42 99.08 35.22L99.08 35.22Q99.48 32.02 99.68 29.02L99.68 29.02Q101.07 24.42 106.87 24.02Z"/><path fill="#ffffff" opacity="1" d="M137.47 66.21L127.07 66.61Q137.27 59.61 150.26 49.22L150.26 49.22L150.26 67.21Q154.06 62.61 159.86 56.61L159.86 56.61Q168.26 50.22 169.86 50.22L169.86 50.22Q170.86 50.22 171.26 50.82L171.26 50.82L182.65 67.21Q182.85 67.41 182.85 132.59L182.85 132.59Q182.85 134.59 180.85 135.19L180.85 135.19L162.46 145.99L162.46 145.19Q166.66 141.19 167.26 137.79L167.26 137.79Q167.06 104.20 165.46 67.81L165.46 67.81Q163.46 63.81 157.86 65.41L157.86 65.41Q157.26 65.61 150.86 74.01L150.86 74.01Q150.26 96.80 151.86 122.80L151.86 122.80Q152.26 129.20 158.06 130.60L158.06 130.60Q155.26 130.60 149.56 130.40Q143.86 130.20 141.06 130.20L141.06 130.20Q139.27 130.20 135.57 130.40Q131.87 130.60 130.07 130.60L130.07 130.60Q135.27 128.40 136.27 127.00L136.27 127.00Q137.07 126.20 137.07 123.00L137.07 123.00L137.47 66.21Z"/><path fill="#ffffff" opacity="1" d="M214.85 110.00L228.44 97.20Q228.04 76.41 227.04 55.01L227.04 55.01L211.25 46.22L208.85 104.80L214.85 110.00ZM245.64 47.02L245.64 47.02L245.44 99.60L244.24 147.39Q225.84 163.59 210.85 175.38L210.85 175.38Q205.25 179.78 202.85 179.78L202.85 179.78Q202.05 179.78 201.45 179.18L201.45 179.18L192.05 162.79Q189.45 156.99 189.45 154.79L189.45 154.79Q189.45 152.39 192.45 150.59L192.45 150.59L210.85 139.79L210.85 140.59Q206.65 144.59 206.05 147.99L206.05 147.99Q207.25 152.99 209.45 162.39L209.45 162.39Q210.45 166.99 211.25 166.79L211.25 166.79Q212.65 166.59 223.24 157.39L223.24 157.39Q228.04 153.19 228.84 148.79L228.84 148.79L228.84 142.99Q228.84 143.59 228.44 104.20L228.44 104.20L213.25 122.40L193.65 110.80L189.25 65.61L209.65 35.82L226.64 44.82Q226.44 39.02 226.24 35.42L226.24 35.42Q229.84 38.22 238.64 42.22L238.64 42.22Q245.64 45.42 245.64 47.02Z"/></g></svg>
