<?xml version="1.0" encoding="UTF-8" standalone="no" ?>
<!DOCTYPE svg PUBLIC "-//W3C//DTD SVG 1.1//EN" "http://www.w3.org/Graphics/SVG/1.1/DTD/svg11.dtd">
<svg xmlns="http://www.w3.org/2000/svg" xmlns:xlink="http://www.w3.org/1999/xlink" version="1.1" width="500" height="500" viewBox="0 0 500 500" xml:space="preserve">
<desc>Created with Fabric.js 3.6.3</desc>
<defs>
</defs>
<g transform="matrix(1 0 0 1 -484.1718181818181 277.9812656226088)" style=""  ><path fill="#000000" opacity="1" d="M35.65-207.38L87.52-138.39L77.33-33.74L27.32-6.88L-8.33-43.92L-7.87 55.17L-25.47 28.31L-27.32 24.61L-24.54 145.46L-39.36 122.31L-49.55 233.44L-82.89 42.20L-66.22 53.32L-83.81-61.52L-60.66-51.33L-80.11-213.86L-8.80-213.86L-8.80-188.86L35.65-207.38ZM23.62-35.59L32.88-47.63L27.32-183.30L-8.80-168.49L-8.33-52.26L23.62-35.59Z"/></g><g transform="matrix(1 0 0 1 250.25 259.37675)" style=""  ><path fill="#ffffff" opacity="1" d="M-64.21 32.26L-63.98 34.15Q-70.61 39.84-89.80 55.24L-89.80 55.24Q-115.16 75.62-123.45 75.62L-123.45 75.62Q-124.64 75.62-125.11 74.91L-125.11 74.91L-154.73 39.37Q-160.89 26.10-160.89 21.83L-160.89 21.83Q-160.89 16.62-155.20 13.07L-155.20 13.07L-146.91 7.85L-128.90 3.59Q-132.22 6.67-135.54 9.51L-135.54 9.51Q-139.09 13.30-139.56 17.33L-139.56 17.33Q-137.90 23.25-126.77 37.95L-126.77 37.95Q-114.92 53.58-110.89 52.40L-110.89 52.40Q-106.86 45.29-95.49 32.73L-95.49 32.73L-97.39 33.21Q-95.73 32.02-95.73 29.65L-95.73 29.65Q-95.73 24.20-130.09-15.25Q-164.44-54.70-164.44-57.78L-164.44-57.78Q-164.44-59.68-163.02-60.63L-163.02-60.63L-159.47-64.89L-133.40-85.74Q-107.81-106.12-99.99-106.12L-99.99-106.12Q-98.81-106.12-98.10-105.41L-98.10-105.41L-68.48-69.87Q-62.32-56.60-62.32-52.33L-62.32-52.33Q-62.32-47.12-68.24-43.57L-68.24-43.57L-91.70-37.64L-91.94-39.30Q-89.33-41.91-85.78-44.04L-85.78-44.04Q-84.59-44.51-84.12-48.07L-84.12-48.07Q-86.01-54.23-100.70-66.91Q-115.39-79.58-120.84-78.40L-120.84-78.40Q-123.92-77.69-127.48-72.12Q-131.03-66.55-131.03-63.23L-131.03-63.23Q-131.03-60.39-128.90-57.55L-128.90-57.55Q-114.21-38.59-82.46-4.71L-82.46-4.71Q-59.47 19.70-59.47 27.28L-59.47 27.28Q-59.47 29.89-61.61 31.78L-61.61 31.78L-64.21 32.26Z"/><path fill="#ffffff" opacity="1" d="M-14.22-57.31L-12.08-47.12L-25.35-47.12L-27.49 53.58Q-27.96 54.53-27.96 55.48L-27.96 55.48Q-27.96 59.74-16.59 69.46L-16.59 69.46L-36.02 62.35Q-47.39 58.09-48.10 52.16L-48.10 52.16L-46.92-48.07L-66.82-48.07Q-46.44-59.44-26.06-87.40L-26.06-87.40L-26.54-57.31L-14.22-57.31Z"/><path fill="#ffffff" opacity="1" d="M10.19-28.16L5.21-27.93L-1.90-37.40Q-5.69-42.38-5.69-48.07L-5.69-48.07Q-5.69-50.20-4.50-51.62L-4.50-51.62Q-2.13-54.70 18.72-67.02L18.72-67.02Q26.54-61.34 35.31-54.47L35.31-54.47Q47.86-44.51 46.68-38.35L46.68-38.35L45.73 15.67L54.50 16.15L37.44 35.34Q31.51 39.60 28.91 39.60L28.91 39.60Q26.54 39.60 27.25 36.76L27.25 36.76L27.25 28.23L12.08 37.71Q1.66 39.60-7.35-3.52L-7.35-3.52Q-3.32-11.58 7.35-16.32L7.35-16.32L22.98-23.42Q14.93-14.66 15.16-9.68L15.16-9.68Q14.69-6.36 14.69-3.05L14.69-3.05Q14.69 12.83 21.56 22.07L21.56 22.07Q25.35 22.54 26.78 17.80L26.78 17.80L26.78-51.62L23.22-49.73Q22.04-49.02 16.82-45.70L16.82-45.70Q8.06-40.25 8.06-35.98L8.06-35.98L10.19-28.16Z"/><path fill="#ffffff" opacity="1" d="M99.76-57.31L101.89-47.12L88.62-47.12L86.49 53.58Q86.01 54.53 86.01 55.48L86.01 55.48Q86.01 59.74 97.39 69.46L97.39 69.46L77.96 62.35Q66.58 58.09 65.87 52.16L65.87 52.16L67.06-48.07L47.15-48.07Q67.53-59.44 87.91-87.40L87.91-87.40L87.43-57.31L99.76-57.31Z"/><path fill="#ffffff" opacity="1" d="M162.55 35.10L162.55 36.29Q160.65 37.71 147.38 47.90L147.38 47.90Q132.46 59.27 127.72 59.27L127.72 59.27Q127.01 59.27 126.77 58.80L126.77 58.80L110.89 39.37Q107.81 32.50 107.81 29.89L107.81 29.89Q107.81 27.05 111.37 24.91L111.37 24.91L116.11 22.07L126.53 19.70Q124.64 21.60 124.64 24.44L124.64 24.44Q124.64 25.39 125.23 28.59Q125.82 31.78 125.58 32.97L125.58 32.97Q126.29 35.81 131.98 40.20Q137.67 44.58 140.27 43.87L140.27 43.87Q140.27 41.26 144.78 35.58L144.78 35.58L143.59 35.81Q144.54 35.10 144.54 33.68L144.54 33.68Q144.54 30.60 126.18 9.39Q107.81-11.81 107.81-13.71L107.81-13.71Q107.81-14.89 108.76-15.37L108.76-15.37L110.89-17.74Q112.79-19.16 126.06-29.35L126.06-29.35Q140.99-40.72 145.72-40.72L145.72-40.72Q146.44-40.72 146.67-40.25L146.67-40.25L162.55-20.82Q165.63-13.95 165.63-11.34L165.63-11.34Q165.63-8.50 162.07-6.36L162.07-6.36L145.01-2.57L145.01-3.52Q146.91-5.42 146.91-8.50L146.91-8.50Q146.91-9.68 146.32-13.00Q145.72-16.32 145.96-17.74L145.96-17.74Q145.25-20.58 141.58-23.07Q137.90-25.56 134.82-25.56L134.82-25.56Q132.22-25.56 129.61-22.48Q127.01-19.40 127.01-16.55L127.01-16.55Q127.01-14.89 127.95-13.71L127.95-13.71Q135.30-4.23 152.83 14.72L152.83 14.72Q165.15 27.99 165.15 32.26L165.15 32.26Q165.15 33.92 163.97 34.86L163.97 34.86L162.55 35.10Z"/></g></svg>
