<?xml version="1.0" encoding="UTF-8" standalone="no" ?>
<!DOCTYPE svg PUBLIC "-//W3C//DTD SVG 1.1//EN" "http://www.w3.org/Graphics/SVG/1.1/DTD/svg11.dtd">
<svg xmlns="http://www.w3.org/2000/svg" xmlns:xlink="http://www.w3.org/1999/xlink" version="1.1" width="500" height="500" viewBox="0 0 500 500" xml:space="preserve">
<desc>Created with Fabric.js 3.6.3</desc>
<defs>
</defs>
<g transform="matrix(1 0 0 1 -484.1718181818181 277.9812656226088)" style=""  ><path fill="#000000" opacity="1" d="M35.65-207.38L87.52-138.39L77.33-33.74L27.32-6.88L-8.33-43.92L-7.87 55.17L-25.47 28.31L-27.32 24.61L-24.54 145.46L-39.36 122.31L-49.55 233.44L-82.89 42.20L-66.22 53.32L-83.81-61.52L-60.66-51.33L-80.11-213.86L-8.80-213.86L-8.80-188.86L35.65-207.38ZM23.62-35.59L32.88-47.63L27.32-183.30L-8.80-168.49L-8.33-52.26L23.62-35.59Z"/></g><g transform="matrix(1 0 0 1 250.25 259.37675)" style=""  ><path fill="#ffffff" opacity="1" d="M-181.98-106.12L-155.44-70.81L-160.65-17.26L-186.24-3.52L-204.49-22.48L-204.25 28.23L-213.26 14.49L-214.20 12.59L-212.78 74.44L-220.36 62.59L-225.58 119.46L-242.64 21.60L-234.11 27.28L-243.11-31.48L-231.26-26.27L-241.22-109.44L-204.72-109.44L-204.72-96.64L-181.98-106.12ZM-188.14-18.21L-183.40-24.37L-186.24-93.80L-204.72-86.22L-204.49-26.74L-188.14-18.21Z"/><path fill="#ffffff" opacity="1" d="M-126.29 36.76L-126.29 36.76Q-123.92 41.50-117.29 39.60L-117.29 39.60Q-116.58 39.37-109.00 29.41L-109.00 29.41Q-108.29 2.40-110.18-28.40L-110.18-28.40Q-110.66-35.98-117.53-37.64L-117.53-37.64Q-114.21-37.64-107.46-37.40Q-100.70-37.17-97.39-37.17L-97.39-37.17Q-95.25-37.17-90.87-37.40Q-86.49-37.64-84.35-37.64L-84.35-37.64Q-89.80-35.27-90.51-34.56L-90.51-34.56Q-92.65-32.90-92.65-28.64L-92.65-28.64L-93.12 38.66Q-93.36 40.08-93.36 41.50L-93.36 41.50Q-93.36 52.64-80.80 57.14L-80.80 57.14Q-90.04 57.38-108.29 58.80L-108.29 58.80L-108.29 37.47Q-112.79 42.92-119.66 50.03L-119.66 50.03Q-129.61 57.61-131.51 57.61L-131.51 57.61Q-132.69 57.61-133.17 56.90L-133.17 56.90L-146.67 37.47Q-147.15 37.00-147.15-34.32L-147.15-34.32Q-147.15-35.98-145.96-35.98L-145.96-35.98Q-143.59-35.98-137.90-31.24L-137.90-31.24Q-127.72-22.71-128.19-22.48L-128.19-22.48Q-128.19-3.76-126.29 36.76Z"/><path fill="#ffffff" opacity="1" d="M-53.55-69.16L-54.50 53.58Q-54.97 54.53-54.97 55.48L-54.97 55.48Q-54.97 59.74-43.60 69.46L-43.60 69.46L-63.03 62.35Q-74.40 58.09-75.11 52.16L-75.11 52.16L-74.17-80.29Q-62.32-86.69-61.13-88.35L-61.13-88.35L-53.08-99.25L-53.55-69.16Z"/><path fill="#ffffff" opacity="1" d="M14.69 35.10L14.69 36.29Q12.80 37.71-0.47 47.90L-0.47 47.90Q-15.40 59.27-20.14 59.27L-20.14 59.27Q-20.85 59.27-21.09 58.80L-21.09 58.80L-36.96 39.37Q-40.04 32.50-40.04 29.89L-40.04 29.89Q-40.04 27.05-36.49 24.91L-36.49 24.91L-31.75 22.07L-21.33 19.70Q-23.22 21.60-23.22 24.44L-23.22 24.44Q-23.22 25.39-22.63 28.59Q-22.04 31.78-22.27 32.97L-22.27 32.97Q-21.56 35.81-15.88 40.20Q-10.19 44.58-7.58 43.87L-7.58 43.87Q-7.58 41.26-3.08 35.58L-3.08 35.58L-4.27 35.81Q-3.32 35.10-3.32 33.68L-3.32 33.68Q-3.32 30.60-21.68 9.39Q-40.04-11.81-40.04-13.71L-40.04-13.71Q-40.04-14.89-39.10-15.37L-39.10-15.37L-36.96-17.74Q-35.07-19.16-21.80-29.35L-21.80-29.35Q-6.87-40.72-2.13-40.72L-2.13-40.72Q-1.42-40.72-1.18-40.25L-1.18-40.25L14.69-20.82Q17.77-13.95 17.77-11.34L17.77-11.34Q17.77-8.50 14.22-6.36L14.22-6.36L-2.84-2.57L-2.84-3.52Q-0.95-5.42-0.95-8.50L-0.95-8.50Q-0.95-9.68-1.54-13.00Q-2.13-16.32-1.90-17.74L-1.90-17.74Q-2.61-20.58-6.28-23.07Q-9.95-25.56-13.03-25.56L-13.03-25.56Q-15.64-25.56-18.25-22.48Q-20.85-19.40-20.85-16.55L-20.85-16.55Q-20.85-14.89-19.90-13.71L-19.90-13.71Q-12.56-4.23 4.98 14.72L4.98 14.72Q17.30 27.99 17.30 32.26L17.30 32.26Q17.30 33.92 16.11 34.86L16.11 34.86L14.69 35.10Z"/><path fill="#ffffff" opacity="1" d="M82.93 32.97L82.93 32.97Q84.12 38.89 69.90 46.24L69.90 46.24Q58.05 52.40 50.47 53.35L50.47 53.35L46.21 52.64Q22.27 34.15 20.85 28.94L20.85 28.94Q20.38 17.80 22.98-26.03L22.98-26.03Q39.33-37.88 56.87-44.04L56.87-44.04L73.69-32.43L75.59-29.35Q80.80-24.37 81.75-8.02L81.75-8.02Q82.22 0.27 82.93 32.97ZM60.19 38.66L60.19 38.66Q60.19-23.19 55.68-34.56L55.68-34.56L48.10-30.06Q44.07-26.98 42.89-23.66L42.89-23.66L44.07 38.66Q45.73 43.40 50.47 45.53L50.47 45.53Q57.58 43.40 60.19 38.66Z"/><path fill="#ffffff" opacity="1" d="M98.33-61.81L86.01-61.34Q98.10-69.63 113.50-81.95L113.50-81.95L113.50-60.63Q125.82-71.29 129.61-71.29L129.61-71.29Q130.80-71.29 131.27-70.58L131.27-70.58L142.41-51.15Q144.30-49.02 144.30-46.88L144.30-46.88Q144.30-44.51 141.93-43.80L141.93-43.80L120.13-31.01L120.13-31.96Q125.11-36.69 125.82-40.72L125.82-40.72Q124.87-44.28 122.50-49.49L122.50-49.49Q119.42-56.12 117.76-55.65L117.76-55.65Q116.34-55.41 114.21-52.57L114.21-52.57Q113.26-17.26 115.39 17.09L115.39 17.09Q115.87 24.68 122.74 26.33L122.74 26.33Q119.42 26.33 112.67 26.10Q105.92 25.86 102.60 25.86L102.60 25.86Q100.47 25.86 96.08 26.10Q91.70 26.33 89.57 26.33L89.57 26.33Q95.73 23.73 96.91 22.07L96.91 22.07Q97.86 21.12 97.86 17.33L97.86 17.33L98.33-61.81Z"/><path fill="#ffffff" opacity="1" d="M143.35 57.14L143.35 57.14L176.05 57.14Q168.71 53.11 169.89 44.34L169.89 44.34Q171.79 30.13 172.50 5.72L172.50 5.72Q173.21-19.16 172.26-37.17L172.26-37.17L150.94-37.17Q152.60-14.18 152.60 4.77L152.60 4.77Q152.60 29.89 149.99 46.71L149.99 46.71Q148.80 54.06 143.35 57.14ZM158.76-78.63L158.76-78.63Q161.84-76.50 166.10-76.50L166.10-76.50Q167.05-76.50 169.18-76.98Q171.31-77.45 172.26-77.45L172.26-77.45Q174.87-77.45 174.87-55.89L174.87-55.89Q168.00-49.25 158.76-48.30L158.76-48.30Q153.07-54.47 149.52-65.37L149.52-65.37Q149.99-69.16 150.23-72.71L150.23-72.71Q151.88-78.16 158.76-78.63Z"/><path fill="#ffffff" opacity="1" d="M203.30-28.16L198.33-27.93L191.22-37.40Q187.43-42.38 187.43-48.07L187.43-48.07Q187.43-50.20 188.61-51.62L188.61-51.62Q190.98-54.70 211.83-67.02L211.83-67.02Q219.65-61.34 228.42-54.47L228.42-54.47Q240.98-44.51 239.79-38.35L239.79-38.35L238.85 15.67L247.61 16.15L230.55 35.34Q224.63 39.60 222.02 39.60L222.02 39.60Q219.65 39.60 220.36 36.76L220.36 36.76L220.36 28.23L205.20 37.71Q194.77 39.60 185.77-3.52L185.77-3.52Q189.80-11.58 200.46-16.32L200.46-16.32L216.10-23.42Q208.04-14.66 208.28-9.68L208.28-9.68Q207.81-6.36 207.81-3.05L207.81-3.05Q207.81 12.83 214.68 22.07L214.68 22.07Q218.47 22.54 219.89 17.80L219.89 17.80L219.89-51.62L216.34-49.73Q215.15-49.02 209.94-45.70L209.94-45.70Q201.17-40.25 201.17-35.98L201.17-35.98L203.30-28.16Z"/></g></svg>
